<svg xmlns="http://www.w3.org/2000/svg" width="300" height="150" viewBox="0 0 300 150" role="img" aria-label="M1D0 Technologies on LinkedIn"><title>M1D0 Technologies on LinkedIn</title><defs>
<linearGradient id="m1dd0limbg" x1="0" y1="0" x2=".35" y2="1"><stop offset="0" stop-color="#f7f7fa"/><stop offset="1" stop-color="#eceef6"/></linearGradient>
<radialGradient id="m1dd0limglow" cx=".8" cy=".48" r=".55"><stop offset="0" stop-color="#9aa2dc" stop-opacity=".35"/><stop offset="1" stop-color="#9aa2dc" stop-opacity="0"/></radialGradient>
<radialGradient id="m1dd0limglow2" cx=".04" cy="0" r=".6"><stop offset="0" stop-color="#c9a65a" stop-opacity=".09"/><stop offset="1" stop-color="#c9a65a" stop-opacity="0"/></radialGradient>
<linearGradient id="m1dd0limmetal" x1="0" y1="0" x2="1" y2="1"><stop offset="0" stop-color="#f3dea6"/><stop offset=".28" stop-color="#c9a65a"/><stop offset=".55" stop-color="#7f5f22"/><stop offset=".78" stop-color="#e8cd8a"/><stop offset="1" stop-color="#a8843f"/></linearGradient>
<linearGradient id="m1dd0limmetalh" x1="0" y1="0" x2="1" y2="0"><stop offset="0" stop-color="#7f5f22"/><stop offset=".35" stop-color="#f3dea6"/><stop offset=".65" stop-color="#c9a65a"/><stop offset="1" stop-color="#7f5f22"/></linearGradient>
<linearGradient id="m1dd0limmetalv" x1="0" y1="1" x2="0" y2="0"><stop offset="0" stop-color="#7f5f22" stop-opacity=".2"/><stop offset=".5" stop-color="#c9a65a"/><stop offset="1" stop-color="#f3dea6" stop-opacity=".2"/></linearGradient>
<linearGradient id="m1dd0limsheen" x1="0" x2="1"><stop offset="0" stop-color="#fff" stop-opacity="0"/><stop offset=".5" stop-color="#fff" stop-opacity=".2"/><stop offset="1" stop-color="#fff" stop-opacity="0"/></linearGradient>
<linearGradient id="m1dd0limspec" x1="0" y1="0" x2="1" y2="1"><stop offset="0" stop-color="#fff" stop-opacity=".22"/><stop offset=".45" stop-color="#fff" stop-opacity="0"/></linearGradient>
<linearGradient id="m1dd0limglint" x1="0" x2="1"><stop offset="0" stop-color="#fff" stop-opacity="0"/><stop offset=".5" stop-color="#fff" stop-opacity=".75"/><stop offset="1" stop-color="#fff" stop-opacity="0"/></linearGradient>
<radialGradient id="m1dd0limfade" cx=".5" cy=".5" r=".5"><stop offset="0" stop-color="#fff"/><stop offset="1" stop-color="#fff" stop-opacity="0"/></radialGradient>
<radialGradient id="m1dd0limpool" cx=".5" cy=".5" r=".5"><stop offset="0" stop-color="#c9a65a" stop-opacity=".22"/><stop offset="1" stop-color="#c9a65a" stop-opacity="0"/></radialGradient>

<filter id="m1dd0limblur" x="-50%" y="-50%" width="200%" height="200%"><feGaussianBlur stdDeviation="16"/></filter>
<clipPath id="m1dd0limframe"><path d="M0,0 H278 Q300,0 300,22 V128 Q300,150 278,150 H0 V0 Z"/></clipPath>
</defs><g clip-path="url(#m1dd0limframe)"><rect width="300" height="150" fill="url(#m1dd0limbg)"/><rect width="300" height="150" fill="url(#m1dd0limglow)" opacity=".6"/><g transform="translate(118.0 43.0) scale(2.667)"><rect width="24" height="24" rx="5" fill="url(#m1dd0limmetal)"/><path  fill="#ffffff" d="M6.6 17.5V10.1H8.5V17.5ZM6.6 8.9V6.9H8.5V8.9ZM10.4 17.5V10.1H12.2V11.8H12.2V17.5ZM15.6 17.5V12.8Q15.6 12.1 15.3 11.8Q14.9 11.5 14.2 11.5Q13.7 11.5 13.2 11.7Q12.8 12 12.5 12.4Q12.2 12.9 12.2 13.5L12.1 11.7Q12.4 10.9 13.2 10.4Q13.9 10 14.9 10Q16.1 10 16.8 10.6Q17.5 11.3 17.5 12.5V17.5Z"/></g><rect x="0" y="26" width="1" height="99" fill="#10143a" opacity=".14"/><rect width="300" height="1" fill="#10143a" opacity=".10"/><rect y="149" width="300" height="1" fill="#10143a" opacity=".10"/></g></svg>
