<svg xmlns="http://www.w3.org/2000/svg" width="300" height="92" viewBox="0 0 300 92" role="img" aria-label="Enterprises on LinkedIn"><title>Enterprises on LinkedIn</title><defs>
<linearGradient id="in0ldadbg" x1="0" y1="0" x2=".35" y2="1"><stop offset="0" stop-color="#f7f7fa"/><stop offset="1" stop-color="#eceef6"/></linearGradient>
<radialGradient id="in0ldadglow" cx=".8" cy=".48" r=".55"><stop offset="0" stop-color="#9aa2dc" stop-opacity=".35"/><stop offset="1" stop-color="#9aa2dc" stop-opacity="0"/></radialGradient>
<radialGradient id="in0ldadglow2" cx=".04" cy="0" r=".6"><stop offset="0" stop-color="#c9a65a" stop-opacity=".09"/><stop offset="1" stop-color="#c9a65a" stop-opacity="0"/></radialGradient>
<linearGradient id="in0ldadmetal" x1="0" y1="0" x2="1" y2="1"><stop offset="0" stop-color="#f3dea6"/><stop offset=".28" stop-color="#c9a65a"/><stop offset=".55" stop-color="#7f5f22"/><stop offset=".78" stop-color="#e8cd8a"/><stop offset="1" stop-color="#a8843f"/></linearGradient>
<linearGradient id="in0ldadmetalh" x1="0" y1="0" x2="1" y2="0"><stop offset="0" stop-color="#7f5f22"/><stop offset=".35" stop-color="#f3dea6"/><stop offset=".65" stop-color="#c9a65a"/><stop offset="1" stop-color="#7f5f22"/></linearGradient>
<linearGradient id="in0ldadmetalv" x1="0" y1="1" x2="0" y2="0"><stop offset="0" stop-color="#7f5f22" stop-opacity=".2"/><stop offset=".5" stop-color="#c9a65a"/><stop offset="1" stop-color="#f3dea6" stop-opacity=".2"/></linearGradient>
<linearGradient id="in0ldadsheen" x1="0" x2="1"><stop offset="0" stop-color="#fff" stop-opacity="0"/><stop offset=".5" stop-color="#fff" stop-opacity=".2"/><stop offset="1" stop-color="#fff" stop-opacity="0"/></linearGradient>
<linearGradient id="in0ldadspec" x1="0" y1="0" x2="1" y2="1"><stop offset="0" stop-color="#fff" stop-opacity=".22"/><stop offset=".45" stop-color="#fff" stop-opacity="0"/></linearGradient>
<linearGradient id="in0ldadglint" x1="0" x2="1"><stop offset="0" stop-color="#fff" stop-opacity="0"/><stop offset=".5" stop-color="#fff" stop-opacity=".75"/><stop offset="1" stop-color="#fff" stop-opacity="0"/></linearGradient>
<radialGradient id="in0ldadfade" cx=".5" cy=".5" r=".5"><stop offset="0" stop-color="#fff"/><stop offset="1" stop-color="#fff" stop-opacity="0"/></radialGradient>
<radialGradient id="in0ldadpool" cx=".5" cy=".5" r=".5"><stop offset="0" stop-color="#c9a65a" stop-opacity=".22"/><stop offset="1" stop-color="#c9a65a" stop-opacity="0"/></radialGradient>

<filter id="in0ldadblur" x="-50%" y="-50%" width="200%" height="200%"><feGaussianBlur stdDeviation="16"/></filter>
<clipPath id="in0ldadframe"><path d="M14,0 H300 V92 H14 Q0,92 0,78 V14 Q0,0 14,0 Z"/></clipPath>
</defs><g clip-path="url(#in0ldadframe)"><rect width="300" height="92" fill="url(#in0ldadbg)"/><rect width="300" height="92" fill="url(#in0ldadglow)" opacity=".6"/><g transform="translate(22 35.0) scale(0.917)"><rect width="24" height="24" rx="5" fill="url(#in0ldadmetal)"/><path  fill="#ffffff" d="M6.8 9.8V17.5H8.7V9.8ZM6.8 8.7H8.7V7.2H6.8ZM10.5 9.8V17.5H12.4V13.1C12.4 11.9 13 11.2 14 11.2C15 11.2 15.3 11.9 15.3 13.1V17.5H17.2V12.6C17.2 10.8 16.3 9.6 14.6 9.6C13.5 9.6 12.7 10 12.3 11.1L12.2 9.8Z"/></g><path  fill="#a7822f" d="M60.5 37V27.8H62.7Q63.9 27.8 64.9 28.3Q65.8 28.8 66.2 29.9Q66.7 30.9 66.7 32.4Q66.7 33.9 66.2 34.9Q65.8 35.9 64.9 36.5Q63.9 37 62.7 37ZM61.8 35.7H62.7Q63.9 35.7 64.6 34.9Q65.3 34.1 65.3 32.4Q65.3 30.7 64.6 29.9Q63.9 29 62.7 29H61.8ZM68.9 37 71.6 27.8H73.4L76.1 37H74.7L72.5 29.2L70.4 37ZM70.4 34.6 70.9 33.3H74.2L74.6 34.6ZM78.6 37V27.8H80V32.2L79.3 31.7H84.2L83.6 32.2V27.8H84.9V37H83.6V32.5L84.2 33H79.3L80 32.5V37ZM87.8 37V27.8H89.2V32.2L88.6 31.7H93.4L92.8 32.2V27.8H94.2V37H92.8V32.5L93.4 33H88.6L89.2 32.5V37ZM96.6 37 99.3 27.8H101.1L103.8 37H102.4L100.2 29.2L98 37ZM98.1 34.6 98.6 33.3H101.9L102.3 34.6ZM106.4 37V27.8H108.1L111.4 35.6L111.1 35.7V27.8H112.5V37H110.8L107.5 29.2L107.8 29.1V37ZM125.2 37V27.8H130.8V29H126.5V31.7H130.7V33H126.5V35.7H130.9V37ZM134.1 37V27.8H135.8L139.1 35.6L138.8 35.7V27.8H140.2V37H138.5L135.2 29.2L135.5 29.1V37ZM145.7 37V29H143V27.8H149.8V29H147V37ZM152.8 37V27.8H158.5V29H154.2V31.7H158.4V33H154.2V35.7H158.6V37ZM161.8 37V27.8H164.7Q166.1 27.8 167 28.5Q167.8 29.2 167.8 30.5Q167.8 31.2 167.5 31.7Q167.2 32.2 166.8 32.5Q166.3 32.8 165.8 32.8L165.7 32.6Q166.7 32.7 167.1 33.1Q167.6 33.5 167.7 34.4L167.9 37H166.6L166.4 34.6Q166.3 34.2 166.2 33.9Q166 33.6 165.7 33.5Q165.3 33.4 164.8 33.4H163.2V37ZM163.2 32.1H164.6Q165.5 32.1 166 31.7Q166.4 31.3 166.4 30.6Q166.4 29.8 166 29.4Q165.5 29 164.6 29H163.2ZM171.3 37V27.8H174.1Q175.1 27.8 175.8 28.1Q176.5 28.5 176.9 29.1Q177.3 29.7 177.3 30.6Q177.3 31.5 176.9 32.2Q176.5 32.8 175.8 33.1Q175.1 33.5 174.1 33.5H172.6V37ZM172.6 32.2H174Q175 32.2 175.5 31.8Q175.9 31.4 175.9 30.6Q175.9 29.9 175.5 29.4Q175 29 174 29H172.6ZM180.3 37V27.8H183.1Q184.6 27.8 185.4 28.5Q186.3 29.2 186.3 30.5Q186.3 31.2 186 31.7Q185.7 32.2 185.2 32.5Q184.7 32.8 184.2 32.8L184.2 32.6Q185.1 32.7 185.6 33.1Q186.1 33.5 186.1 34.4L186.4 37H185L184.8 34.6Q184.8 34.2 184.6 33.9Q184.5 33.6 184.1 33.5Q183.8 33.4 183.2 33.4H181.6V37ZM181.6 32.1H183.1Q184 32.1 184.4 31.7Q184.9 31.3 184.9 30.6Q184.9 29.8 184.4 29.4Q184 29 183.1 29H181.6ZM189.6 37V35.7H191.8V29H189.6V27.8H195.4V29H193.2V35.7H195.4V37ZM201.9 37.2Q200.9 37.2 200.1 36.8Q199.4 36.4 198.9 35.7Q198.5 34.9 198.4 34L199.8 33.9Q199.9 34.6 200.2 35Q200.4 35.5 200.9 35.7Q201.3 35.9 201.9 35.9Q202.5 35.9 202.9 35.8Q203.3 35.6 203.5 35.3Q203.7 35.1 203.7 34.6Q203.7 34.2 203.5 33.9Q203.3 33.6 202.8 33.4Q202.3 33.1 201.3 32.8Q200.4 32.6 199.8 32.3Q199.2 31.9 198.9 31.4Q198.6 30.9 198.6 30.2Q198.6 29.4 199 28.8Q199.4 28.2 200.1 27.9Q200.7 27.6 201.7 27.6Q202.7 27.6 203.4 27.9Q204.1 28.3 204.4 29Q204.8 29.6 204.9 30.5L203.5 30.6Q203.5 30.1 203.2 29.7Q203 29.3 202.6 29.1Q202.2 28.8 201.7 28.8Q200.9 28.8 200.5 29.2Q200 29.6 200 30.2Q200 30.6 200.2 30.8Q200.4 31.1 200.8 31.3Q201.3 31.5 202.1 31.7Q203.2 32 203.9 32.4Q204.5 32.8 204.8 33.3Q205.1 33.9 205.1 34.6Q205.1 35.4 204.7 36Q204.3 36.6 203.6 36.9Q202.8 37.2 201.9 37.2ZM208.2 37V27.8H213.9V29H209.6V31.7H213.7V33H209.6V35.7H214V37ZM220.3 37.2Q219.3 37.2 218.6 36.8Q217.8 36.4 217.4 35.7Q216.9 34.9 216.9 34L218.3 33.9Q218.4 34.6 218.6 35Q218.9 35.5 219.4 35.7Q219.8 35.9 220.4 35.9Q221 35.9 221.3 35.8Q221.7 35.6 221.9 35.3Q222.1 35.1 222.1 34.6Q222.1 34.2 222 33.9Q221.8 33.6 221.2 33.4Q220.7 33.1 219.8 32.8Q218.8 32.6 218.2 32.3Q217.6 31.9 217.3 31.4Q217.1 30.9 217.1 30.2Q217.1 29.4 217.4 28.8Q217.8 28.2 218.5 27.9Q219.2 27.6 220.2 27.6Q221.1 27.6 221.8 27.9Q222.5 28.3 222.9 29Q223.3 29.6 223.4 30.5L222 30.6Q221.9 30.1 221.7 29.7Q221.5 29.3 221.1 29.1Q220.7 28.8 220.1 28.8Q219.4 28.8 218.9 29.2Q218.5 29.6 218.5 30.2Q218.5 30.6 218.7 30.8Q218.8 31.1 219.3 31.3Q219.8 31.5 220.6 31.7Q221.7 32 222.3 32.4Q223 32.8 223.3 33.3Q223.6 33.9 223.6 34.6Q223.6 35.4 223.1 36Q222.7 36.6 222 36.9Q221.3 37.2 220.3 37.2Z"/><path  fill="#10143a" d="M60.1 64.5H62.1L67.7 48.1H65.7ZM78.1 48.9H76V53.6C75.4 52.7 74.3 52.1 73 52.1C70.3 52.1 68.7 54.1 68.7 57.3C68.7 60.6 70.3 62.6 73 62.6C74.4 62.6 75.5 62 76.1 60.9L76.2 62.4H78.1ZM70.8 57.3C70.8 55.2 71.9 53.8 73.5 53.8C75.1 53.8 76.2 55.2 76.2 57.3C76.2 59.5 75.1 60.8 73.5 60.8C71.9 60.8 70.8 59.5 70.8 57.3ZM80.5 55.3 82.6 55.5C82.9 54.3 83.6 53.7 84.8 53.7C86.3 53.7 87 54.5 87 56.1L84.1 56.7C81.8 57.1 80.3 57.7 80.3 59.7C80.3 61.5 81.9 62.6 83.9 62.6C85.6 62.6 86.7 61.8 87.2 60.8C87.3 62.2 88.5 62.4 89.4 62.4H90.1V60.8H89.7C89.3 60.8 89.1 60.6 89.1 60.1V56.3C89.1 53.6 87.6 52.1 84.8 52.1C82.5 52.1 80.9 53.3 80.5 55.3ZM82.4 59.7C82.4 58.4 83.5 58.3 84.9 58.1L87 57.7V57.8C87 59.9 85.9 61 84.4 61C83.1 61 82.4 60.4 82.4 59.7ZM92 48.9V62.4H94V56.6C94 54.8 94.9 53.9 96.4 53.9C97.8 53.9 98.3 54.8 98.3 56.6V62.4H100.4V55.9C100.4 53.7 99.2 52.1 97 52.1C95.8 52.1 94.6 52.5 94 53.6V48.9ZM102.9 48.9V62.4H104.9V56.6C104.9 54.8 105.8 53.9 107.3 53.9C108.7 53.9 109.2 54.8 109.2 56.6V62.4H111.3V55.9C111.3 53.7 110.1 52.1 107.9 52.1C106.7 52.1 105.5 52.5 104.9 53.6V48.9ZM113.7 55.3 115.8 55.5C116.1 54.3 116.9 53.7 118 53.7C119.5 53.7 120.2 54.5 120.2 56.1L117.3 56.7C115 57.1 113.5 57.7 113.5 59.7C113.5 61.5 115.1 62.6 117.2 62.6C118.8 62.6 120 61.8 120.4 60.8C120.5 62.2 121.7 62.4 122.7 62.4H123.3V60.8H122.9C122.5 60.8 122.3 60.6 122.3 60.1V56.3C122.3 53.6 120.8 52.1 118 52.1C115.7 52.1 114.1 53.3 113.7 55.3ZM115.7 59.7C115.7 58.4 116.8 58.3 118.1 58.1L120.3 57.7V57.8C120.3 59.9 119.1 61 117.6 61C116.3 61 115.7 60.4 115.7 59.7ZM125.2 52.3V62.4H127.2V56.5C127.2 54.8 128.2 53.8 129.6 53.8C131 53.8 131.5 54.8 131.5 56.5V62.4H133.6V55.9C133.6 53.7 132.4 52.1 130.2 52.1C128.8 52.1 127.6 52.7 127.1 54L127 52.3ZM135.9 55.9V57.7H142.2V55.9ZM143.9 57.3C143.9 60.5 145.8 62.6 148.7 62.6C150.8 62.6 152.6 61.4 153.2 59.5L151 59.3C150.6 60.3 149.7 60.9 148.7 60.9C147.2 60.9 146.2 59.8 146.1 57.9H153.3V57.3C153.2 53.7 151.1 52.1 148.7 52.1C145.8 52.1 143.9 54.1 143.9 57.3ZM146.1 56.4C146.3 54.8 147.3 53.8 148.7 53.8C149.9 53.8 150.9 54.5 151.2 56.4ZM155.5 52.3V62.4H157.5V56.5C157.5 54.8 158.4 53.8 159.9 53.8C161.3 53.8 161.8 54.8 161.8 56.5V62.4H163.9V55.9C163.9 53.7 162.7 52.1 160.4 52.1C159.1 52.1 157.9 52.7 157.4 54L157.3 52.3ZM167.3 50V52.3H165.8V54H167.3V59.5C167.3 61.4 168.4 62.4 170.4 62.4H172.1V60.7H170.5C169.8 60.7 169.4 60.3 169.4 59.5V54H172.1V52.3H169.4V50ZM173.3 57.3C173.3 60.5 175.2 62.6 178.1 62.6C180.2 62.6 181.9 61.4 182.5 59.5L180.4 59.3C180 60.3 179.1 60.9 178.1 60.9C176.5 60.9 175.6 59.8 175.5 57.9H182.7V57.3C182.6 53.7 180.5 52.1 178.1 52.1C175.2 52.1 173.3 54.1 173.3 57.3ZM175.5 56.4C175.7 54.8 176.6 53.8 178.1 53.8C179.2 53.8 180.3 54.5 180.5 56.4ZM184.8 52.3V62.4H186.9V56.5C186.9 54.8 187.6 54 189.2 54H190.1V52.3H189.2C187.9 52.3 187.1 52.9 186.8 54.2L186.7 52.3ZM191.9 65.2H193.9V61C194.5 62 195.5 62.6 196.9 62.6C199.9 62.6 201.2 60.2 201.2 57.3C201.2 54.5 199.9 52.1 196.9 52.1C195.5 52.1 194.4 52.7 193.8 53.8L193.8 52.3H191.9ZM193.7 57.3C193.7 55.5 194.5 53.8 196.4 53.8C198.3 53.8 199.1 55.5 199.1 57.3C199.1 59.1 198.3 60.8 196.4 60.8C194.5 60.8 193.7 59.1 193.7 57.3ZM203.4 52.3V62.4H205.4V56.5C205.4 54.8 206.1 54 207.7 54H208.7V52.3H207.7C206.4 52.3 205.7 52.9 205.3 54.2L205.3 52.3ZM210.9 52.3V62.4H213V52.3ZM210.9 50.8H213V48.9H210.9ZM221.7 55.5 223.8 55.4C223.4 53.3 221.8 52.1 219.6 52.1C217.1 52.1 215.5 53.3 215.5 55.2C215.5 57.2 217.3 57.8 219.5 58.2C220.5 58.5 221.8 58.6 221.8 59.7C221.8 60.6 220.7 60.9 219.8 60.9C218.4 60.9 217.5 60.2 217.3 59.1L215.2 59.2C215.4 61.3 217.2 62.6 219.8 62.6C221.9 62.6 223.9 61.7 223.9 59.7C223.9 57.8 222.3 57.1 219.8 56.6C218.8 56.4 217.6 56.1 217.6 55.2C217.6 54.3 218.4 53.8 219.4 53.8C220.5 53.8 221.5 54.4 221.7 55.5ZM225.6 57.3C225.6 60.5 227.5 62.6 230.4 62.6C232.5 62.6 234.2 61.4 234.8 59.5L232.7 59.3C232.3 60.3 231.4 60.9 230.4 60.9C228.8 60.9 227.9 59.8 227.8 57.9H235V57.3C234.9 53.7 232.8 52.1 230.4 52.1C227.5 52.1 225.6 54.1 225.6 57.3ZM227.8 56.4C228 54.8 229 53.8 230.4 53.8C231.5 53.8 232.6 54.5 232.8 56.4ZM243.1 55.5 245.2 55.4C244.9 53.3 243.2 52.1 241 52.1C238.5 52.1 236.9 53.3 236.9 55.2C236.9 57.2 238.8 57.8 240.9 58.2C242 58.5 243.2 58.6 243.2 59.7C243.2 60.6 242.1 60.9 241.2 60.9C239.8 60.9 239 60.2 238.8 59.1L236.7 59.2C236.8 61.3 238.7 62.6 241.2 62.6C243.4 62.6 245.4 61.7 245.4 59.7C245.4 57.8 243.8 57.1 241.2 56.6C240.2 56.4 239.1 56.1 239 55.2C239 54.3 239.8 53.8 240.9 53.8C241.9 53.8 242.9 54.4 243.1 55.5Z"/><path d="M272.0,24.0 L281.0,15.0 M274.5,15.0 H281.0 V21.5" fill="none" stroke="#5f648c" stroke-width="1.4" stroke-linecap="round" stroke-linejoin="round"/><rect width="300" height="1" fill="#10143a" opacity=".10"/><rect y="91" width="300" height="1" fill="#10143a" opacity=".10"/></g></svg>
