<svg xmlns="http://www.w3.org/2000/svg" width="300" height="190" viewBox="0 0 300 190" role="img" aria-label="M1D0 website: m1d0.com"><title>M1D0 website: m1d0.com</title><defs>
<linearGradient id="we3lm1mbg" x1="0" y1="0" x2=".35" y2="1"><stop offset="0" stop-color="#f7f7fa"/><stop offset="1" stop-color="#eceef6"/></linearGradient>
<radialGradient id="we3lm1mglow" cx=".8" cy=".48" r=".55"><stop offset="0" stop-color="#9aa2dc" stop-opacity=".35"/><stop offset="1" stop-color="#9aa2dc" stop-opacity="0"/></radialGradient>
<radialGradient id="we3lm1mglow2" cx=".04" cy="0" r=".6"><stop offset="0" stop-color="#c9a65a" stop-opacity=".09"/><stop offset="1" stop-color="#c9a65a" stop-opacity="0"/></radialGradient>
<linearGradient id="we3lm1mmetal" x1="0" y1="0" x2="1" y2="1"><stop offset="0" stop-color="#f3dea6"/><stop offset=".28" stop-color="#c9a65a"/><stop offset=".55" stop-color="#7f5f22"/><stop offset=".78" stop-color="#e8cd8a"/><stop offset="1" stop-color="#a8843f"/></linearGradient>
<linearGradient id="we3lm1mmetalh" x1="0" y1="0" x2="1" y2="0"><stop offset="0" stop-color="#7f5f22"/><stop offset=".35" stop-color="#f3dea6"/><stop offset=".65" stop-color="#c9a65a"/><stop offset="1" stop-color="#7f5f22"/></linearGradient>
<linearGradient id="we3lm1mmetalv" x1="0" y1="1" x2="0" y2="0"><stop offset="0" stop-color="#7f5f22" stop-opacity=".2"/><stop offset=".5" stop-color="#c9a65a"/><stop offset="1" stop-color="#f3dea6" stop-opacity=".2"/></linearGradient>
<linearGradient id="we3lm1msheen" x1="0" x2="1"><stop offset="0" stop-color="#fff" stop-opacity="0"/><stop offset=".5" stop-color="#fff" stop-opacity=".2"/><stop offset="1" stop-color="#fff" stop-opacity="0"/></linearGradient>
<linearGradient id="we3lm1mspec" x1="0" y1="0" x2="1" y2="1"><stop offset="0" stop-color="#fff" stop-opacity=".22"/><stop offset=".45" stop-color="#fff" stop-opacity="0"/></linearGradient>
<linearGradient id="we3lm1mglint" x1="0" x2="1"><stop offset="0" stop-color="#fff" stop-opacity="0"/><stop offset=".5" stop-color="#fff" stop-opacity=".75"/><stop offset="1" stop-color="#fff" stop-opacity="0"/></linearGradient>
<radialGradient id="we3lm1mfade" cx=".5" cy=".5" r=".5"><stop offset="0" stop-color="#fff"/><stop offset="1" stop-color="#fff" stop-opacity="0"/></radialGradient>
<radialGradient id="we3lm1mpool" cx=".5" cy=".5" r=".5"><stop offset="0" stop-color="#c9a65a" stop-opacity=".22"/><stop offset="1" stop-color="#c9a65a" stop-opacity="0"/></radialGradient>

<filter id="we3lm1mblur" x="-50%" y="-50%" width="200%" height="200%"><feGaussianBlur stdDeviation="16"/></filter>
<clipPath id="we3lm1mframe"><path d="M0,0 H278 Q300,0 300,22 V168 Q300,190 278,190 H0 V0 Z"/></clipPath>
</defs><g clip-path="url(#we3lm1mframe)"><rect width="300" height="190" fill="url(#we3lm1mbg)"/><rect width="300" height="190" fill="url(#we3lm1mglow)" opacity=".6"/><g transform="translate(122.0 41.7) scale(2.333)"><g fill="none" stroke="#a7822f" stroke-width="1.5"><circle cx="12" cy="12" r="10.5"/><ellipse cx="12" cy="12" rx="4.6" ry="10.5"/><path d="M1.5,12 H22.5 M3.5,6.5 H20.5 M3.5,17.5 H20.5"/></g></g><path  fill="#10143a" d="M103.9 122.8V148.3H108.6V130.8L115 148.3H119.6L125.9 130.8V148.3H130.7V122.8H124.3L117.3 142.5L110.3 122.8ZM136.9 127.2H135V130.8H140.4V148.3H145.1V122.8H141.4C141.4 125.8 140 127.2 136.9 127.2ZM159.9 122.8H151.3V148.3H160.1C168.1 148.3 172.6 143.7 172.6 135.6C172.6 127.4 168 122.8 159.9 122.8ZM156 144.2V126.9H159.9C165.2 126.9 167.7 129.7 167.7 135.6C167.7 141.4 165.2 144.2 159.9 144.2ZM186.5 148.9C193.2 148.9 197.2 143.6 197.2 135.6C197.2 127.4 193.2 122.2 186.5 122.2C179.9 122.2 175.9 127.4 175.9 135.6C175.9 143.6 179.9 148.9 186.5 148.9ZM180.8 135.6C180.8 129.6 182.8 126.3 186.5 126.3C190.3 126.3 192.3 129.6 192.3 135.6C192.3 141.5 190.3 144.7 186.5 144.7C182.8 144.7 180.8 141.5 180.8 135.6Z"/><rect x="0" y="34" width="1" height="122" fill="#10143a" opacity=".14"/><rect width="300" height="1" fill="#10143a" opacity=".10"/><rect y="189" width="300" height="1" fill="#10143a" opacity=".10"/></g></svg>
